HIERARCHY
ROOT Hips
{
    OFFSET   0.000000   0.000000   0.000000
    CHANNELS 6 Xposition Yposition Zposition Zrotation Xrotation Yrotation
    JOINT Chest
    {
        OFFSET   0.000000   8.007230   0.000000
        CHANNELS 3 Zrotation Xrotation Yrotation
        JOINT Chest2
        {
            OFFSET   0.000000  22.077100   0.000000
            CHANNELS 3 Zrotation Xrotation Yrotation
            JOINT Neck
            {
                OFFSET   0.000000  23.254800  -0.000021
                CHANNELS 3 Zrotation Xrotation Yrotation
                JOINT Head
                {
                    OFFSET   0.000000  14.370000   1.956610
                    CHANNELS 3 Zrotation Xrotation Yrotation
                    End Site
                    {
                        OFFSET   0.000000  19.566000   0.000000
                    }
                }
            }
            JOINT LeftCollar
            {
                OFFSET   3.911900  19.017000  -0.467063
                CHANNELS 3 Zrotation Xrotation Yrotation
                JOINT LeftShoulder
                {
                    OFFSET  10.383700   0.000000   0.000000
                    CHANNELS 3 Zrotation Xrotation Yrotation
                    JOINT LeftElbow
                    {
                        OFFSET  26.662100   0.001529   0.000325
                        CHANNELS 3 Zrotation Xrotation Yrotation
                        JOINT LeftWrist
                        {
                            OFFSET  28.869000  -0.000011  -0.000096
                            CHANNELS 3 Zrotation Xrotation Yrotation
                            JOINT LeftFinger0
                            {
                                OFFSET   2.044650  -2.323460   3.252850
                                CHANNELS 3 Zrotation Xrotation Yrotation
                                JOINT LeftFinger01
                                {
                                    OFFSET   3.088130   0.000000   0.000000
                                    CHANNELS 3 Zrotation Xrotation Yrotation
                                    JOINT LeftFinger02
                                    {
                                        OFFSET   2.639460   0.000000   0.000000
                                        CHANNELS 3 Zrotation Xrotation Yrotation
                                        End Site
                                        {
                                            OFFSET   2.582190   0.000000   0.000000
                                        }
                                    }
                                }
                            }
                            JOINT LeftFinger1
                            {
                                OFFSET   8.364480   0.000000   3.252850
                                CHANNELS 3 Zrotation Xrotation Yrotation
                                JOINT LeftFinger11
                                {
                                    OFFSET   4.646930   0.000000   0.000000
                                    CHANNELS 3 Zrotation Xrotation Yrotation
                                    JOINT LeftFinger12
                                    {
                                        OFFSET   2.323460   0.000000   0.000000
                                        CHANNELS 3 Zrotation Xrotation Yrotation
                                        End Site
                                        {
                                            OFFSET   2.273050   0.000000   0.000000
                                        }
                                    }
                                }
                            }
                            JOINT LeftFinger2
                            {
                                OFFSET   8.364480   0.000016   1.078090
                                CHANNELS 3 Zrotation Xrotation Yrotation
                                JOINT LeftFinger21
                                {
                                    OFFSET   5.111620   0.000000   0.000000
                                    CHANNELS 3 Zrotation Xrotation Yrotation
                                    JOINT LeftFinger22
                                    {
                                        OFFSET   2.788160   0.000017   0.000000
                                        CHANNELS 3 Zrotation Xrotation Yrotation
                                        End Site
                                        {
                                            OFFSET   2.727660   0.000000   0.000000
                                        }
                                    }
                                }
                            }
                            JOINT LeftFinger3
                            {
                                OFFSET   7.899780   0.000015  -1.078090
                                CHANNELS 3 Zrotation Xrotation Yrotation
                                JOINT LeftFinger31
                                {
                                    OFFSET   4.646920   0.000000   0.000000
                                    CHANNELS 3 Zrotation Xrotation Yrotation
                                    JOINT LeftFinger32
                                    {
                                        OFFSET   2.323470   0.000000   0.000000
                                        CHANNELS 3 Zrotation Xrotation Yrotation
                                        End Site
                                        {
                                            OFFSET   2.273050   0.000000   0.000000
                                        }
                                    }
                                }
                            }
                            JOINT LeftFinger4
                            {
                                OFFSET   7.435090   0.000000  -3.252850
                                CHANNELS 3 Zrotation Xrotation Yrotation
                                JOINT LeftFinger41
                                {
                                    OFFSET   3.717550   0.000000   0.000000
                                    CHANNELS 3 Zrotation Xrotation Yrotation
                                    JOINT LeftFinger42
                                    {
                                        OFFSET   1.858760   0.000000   0.000000
                                        CHANNELS 3 Zrotation Xrotation Yrotation
                                        End Site
                                        {
                                            OFFSET   1.818440   0.000000   0.000000
                                        }
                                    }
                                }
                            }
                        }
                    }
                }
            }
            JOINT RightCollar
            {
                OFFSET  -3.911900  19.017000  -0.467062
                CHANNELS 3 Zrotation Xrotation Yrotation
                JOINT RightShoulder
                {
                    OFFSET -10.383700   0.000015   0.000000
                    CHANNELS 3 Zrotation Xrotation Yrotation
                    JOINT RightElbow
                    {
                        OFFSET -26.662100   0.001341   0.000385
                        CHANNELS 3 Zrotation Xrotation Yrotation
                        JOINT RightWrist
                        {
                            OFFSET -28.869000   0.000025  -0.000080
                            CHANNELS 3 Zrotation Xrotation Yrotation
                            JOINT RightFinger0
                            {
                                OFFSET  -2.044650  -2.323490   3.252850
                                CHANNELS 3 Zrotation Xrotation Yrotation
                                JOINT RightFinger01
                                {
                                    OFFSET  -3.088130   0.000000   0.000000
                                    CHANNELS 3 Zrotation Xrotation Yrotation
                                    JOINT RightFinger02
                                    {
                                        OFFSET  -2.639460   0.000000   0.000000
                                        CHANNELS 3 Zrotation Xrotation Yrotation
                                        End Site
                                        {
                                            OFFSET  -2.582190   0.000000   0.000000
                                        }
                                    }
                                }
                            }
                            JOINT RightFinger1
                            {
                                OFFSET  -8.364480   0.000000   3.252850
                                CHANNELS 3 Zrotation Xrotation Yrotation
                                JOINT RightFinger11
                                {
                                    OFFSET  -4.646930   0.000000   0.000000
                                    CHANNELS 3 Zrotation Xrotation Yrotation
                                    JOINT RightFinger12
                                    {
                                        OFFSET  -2.323470   0.000000   0.000000
                                        CHANNELS 3 Zrotation Xrotation Yrotation
                                        End Site
                                        {
                                            OFFSET  -2.273050   0.000000   0.000000
                                        }
                                    }
                                }
                            }
                            JOINT RightFinger2
                            {
                                OFFSET  -8.364480   0.000000   1.078090
                                CHANNELS 3 Zrotation Xrotation Yrotation
                                JOINT RightFinger21
                                {
                                    OFFSET  -5.111610   0.000000   0.000000
                                    CHANNELS 3 Zrotation Xrotation Yrotation
                                    JOINT RightFinger22
                                    {
                                        OFFSET  -2.788160   0.000000   0.000000
                                        CHANNELS 3 Zrotation Xrotation Yrotation
                                        End Site
                                        {
                                            OFFSET  -2.727660   0.000000   0.000000
                                        }
                                    }
                                }
                            }
                            JOINT RightFinger3
                            {
                                OFFSET  -7.899780   0.000000  -1.078090
                                CHANNELS 3 Zrotation Xrotation Yrotation
                                JOINT RightFinger31
                                {
                                    OFFSET  -4.646920   0.000000   0.000000
                                    CHANNELS 3 Zrotation Xrotation Yrotation
                                    JOINT RightFinger32
                                    {
                                        OFFSET  -2.323470   0.000000   0.000000
                                        CHANNELS 3 Zrotation Xrotation Yrotation
                                        End Site
                                        {
                                            OFFSET  -2.273050   0.000000   0.000000
                                        }
                                    }
                                }
                            }
                            JOINT RightFinger4
                            {
                                OFFSET  -7.435090   0.000000  -3.252850
                                CHANNELS 3 Zrotation Xrotation Yrotation
                                JOINT RightFinger41
                                {
                                    OFFSET  -3.717550   0.000000   0.000000
                                    CHANNELS 3 Zrotation Xrotation Yrotation
                                    JOINT RightFinger42
                                    {
                                        OFFSET  -1.858770   0.000000   0.000000
                                        CHANNELS 3 Zrotation Xrotation Yrotation
                                        End Site
                                        {
                                            OFFSET  -1.818440   0.000000   0.000000
                                        }
                                    }
                                }
                            }
                        }
                    }
                }
            }
        }
    }
    JOINT LeftHip
    {
        OFFSET   9.783010   0.000000   0.000000
        CHANNELS 3 Zrotation Xrotation Yrotation
        JOINT LeftKnee
        {
            OFFSET   0.000070 -41.789100   0.000028
            CHANNELS 3 Zrotation Xrotation Yrotation
            JOINT LeftAnkle
            {
                OFFSET   0.000087 -41.133200  -0.000100
                CHANNELS 3 Zrotation Xrotation Yrotation
                JOINT LeftToe
                {
                    OFFSET   0.000000  -6.358960  14.674500
                    CHANNELS 3 Zrotation Xrotation Yrotation
                    End Site
                    {
                        OFFSET   0.000000   0.000000   3.913200
                    }
                }
            }
        }
    }
    JOINT RightHip
    {
        OFFSET  -9.783020   0.000000   0.000000
        CHANNELS 3 Zrotation Xrotation Yrotation
        JOINT RightKnee
        {
            OFFSET   0.000044 -41.789100  -0.000870
            CHANNELS 3 Zrotation Xrotation Yrotation
            JOINT RightAnkle
            {
                OFFSET  -0.000090 -41.133200  -0.000245
                CHANNELS 3 Zrotation Xrotation Yrotation
                JOINT RightToe
                {
                    OFFSET   0.000000  -6.358960  14.674500
                    CHANNELS 3 Zrotation Xrotation Yrotation
                    End Site
                    {
                        OFFSET   0.000000   0.000000   3.913200
                    }
                }
            }
        }
    }
}
MOTION
Frames: 5
Frame Time:   0.016667
 -1.907110  90.007000  -1.987640  -1.964840  -6.002780  -1.780710   0.115632   5.861070  -1.195080   0.357706  11.718400  -2.421280   1.937900  -1.490470   0.049966   3.189790  -3.012080  11.423400  -5.881360  -1.892050   5.625920 -69.317200  17.897500  -5.888970  -3.507760  -3.550290 -20.177200  11.921800   4.468610  10.505900  47.702900  33.597800 -69.853400 -14.607600   0.012703   0.003397  -2.297310  -0.003571   0.000000 -35.170600  10.731400 -14.802100 -29.928400  -0.009974  -0.009148 -20.949900  -0.007005  -0.009800 -30.695700   0.515622  -0.846236 -46.027500  -0.003213   0.000393 -30.668700  -0.002887   0.003955 -28.484600   0.481765  -0.864888 -35.976300  -0.008362  -0.001543 -23.967900   0.003457   0.004342 -31.301600   0.511193  -0.840788 -46.957100   0.004608   0.002220 -31.273800   0.003866  -0.007221  10.696300   1.313780   9.670140  65.743200  15.204700   4.792870   1.051380  -4.260680  18.311900 -21.382500 -18.493600   1.451380 -36.858800  28.071600  57.884900  32.023300   0.001918  -0.001144  11.014200   0.002270  -0.003486  40.143300   3.371220   3.989910  32.930000  -0.004131   0.002332  23.165300   0.002770   0.002050  29.413800  -3.198140  -5.639720  44.355300  -0.005202   0.009738  29.540600   0.000983   0.008850  29.283600  -4.953460  -8.756670  44.491200  -0.005707   0.002112  29.633000  -0.003418   0.005219  42.807400  -6.866980  -7.356690  64.869400  -0.005960  -0.005495  43.205600   0.005004  -0.004084   3.213120   5.866750   1.608280   0.652041   3.434610   9.772210  -7.008170  -4.814780   3.027040   0.000000   0.000000   0.000000   4.682020   4.829630  -5.744020  -1.907250   3.531300  -5.630770 -10.374900   1.052840  -1.213220  -0.000000   0.000000  -0.000000
 -1.917740  90.007000  -1.982470  -1.966710  -6.010520  -1.795460   0.113677   5.866230  -1.194950   0.353873  11.728700  -2.420860   1.952210  -1.501930   0.049979   3.213410  -3.034970  11.446000  -5.877940  -1.892000   5.619380 -69.307500  17.913100  -5.889330  -3.507610  -3.556660 -20.166500  11.929300   4.457990  10.499900  47.694800  33.588900 -69.837400 -14.603300   0.012708   0.003391  -2.297310  -0.003576   0.000000 -35.170400  10.730800 -14.801400 -29.928700  -0.009982  -0.009151 -20.950100  -0.007009  -0.009801 -30.695500   0.515620  -0.855746 -46.032700  -0.003213   0.000396 -30.668700  -0.002887   0.003961 -28.484500   0.481764  -0.874637 -35.980100  -0.008367  -0.001538 -23.967600   0.003460   0.004342 -31.301000   0.517393  -0.850251 -46.957100   0.004608   0.002221 -31.273400   0.003870  -0.007222  10.701300   1.309660   9.669940  65.748000  15.203600   4.792040   1.049450  -4.251440  18.325400 -21.378900 -18.493700   1.439310 -36.856700  28.068700  57.889800  32.023300   0.001918  -0.001132  11.013900   0.002273  -0.003493  40.142000   3.371500   3.990220  32.930100  -0.004075   0.002270  23.165300   0.002766   0.002004  29.413500  -3.198120  -5.644120  44.355500  -0.004914   0.009659  29.540700   0.000923   0.008770  29.283400  -4.953460  -8.756700  44.491000  -0.005473   0.001970  29.632800  -0.003308   0.005342  42.807200  -6.866980  -7.356710  64.869200  -0.005950  -0.005580  43.205400   0.004987  -0.004146   3.219280   5.876130   1.608310   0.649568   3.447600   9.782820  -7.008290  -4.827480   3.027360  -0.000000   0.000000   0.000000   4.692570   4.838770  -5.748350  -1.907510   3.530020  -5.627530 -10.383800   1.048230  -1.199940   0.000000   0.000000   0.000000
 -1.935800  90.007000  -1.973700  -1.970120  -6.022870  -1.818580   0.110088   5.874180  -1.194550   0.346780  11.744700  -2.419760   1.976930  -1.518250   0.049992   3.254200  -3.067570  11.478900  -5.872310  -1.891890   5.608080 -69.292900  17.937100  -5.889980  -3.506360  -3.569490 -20.155900  11.941200   4.436370  10.490400  47.682000  33.576100 -69.814100 -14.594600   0.012718   0.003386  -2.297300  -0.003585   0.000000 -35.170100  10.730200 -14.800800 -29.929100  -0.010001  -0.009159 -20.950400  -0.007023  -0.009803 -30.695400   0.515617  -0.868677 -46.040500  -0.003213   0.000400 -30.668600  -0.002889   0.003977 -28.484300   0.481765  -0.887901 -35.986400  -0.008381  -0.001529 -23.967200   0.003463   0.004342 -31.300400   0.524846  -0.863115 -46.957100   0.004608   0.002222 -31.273000   0.003882  -0.007229  10.708600   1.303040   9.669640  65.756200  15.199500   4.787850   1.045410  -4.234220  18.345000 -21.370600 -18.493800   1.420510 -36.851300  28.065300  57.898300  32.023300   0.001916  -0.001121  11.013600   0.002275  -0.003502  40.139100   3.371770   3.990520  32.930200  -0.004018   0.002169  23.165300   0.002753   0.001926  29.412900  -3.198080  -5.651340  44.355700  -0.004625   0.009580  29.540900   0.000802   0.008690  29.283200  -4.953460  -8.756760  44.490900  -0.005239   0.001827  29.632600  -0.003197   0.005515  42.806900  -6.866980  -7.356740  64.869000  -0.005931  -0.005722  43.205200   0.004950  -0.004250   3.229460   5.892750   1.608340   0.646785   3.466600   9.800750  -7.010740  -4.847360   3.027720   0.000000   0.000000  -0.000000   4.709560   4.854290  -5.760030  -1.908270   3.527420  -5.617580 -10.397700   1.040370  -1.179430   0.000000   0.000000  -0.000000
 -1.950800  90.005800  -1.966480  -1.973590  -6.031520  -1.833790   0.106473   5.879200  -1.194000   0.339549  11.754900  -2.418310   1.998300  -1.526280   0.049988   3.289580  -3.083580  11.497400  -5.867530  -1.891730   5.597460 -69.283700  17.953300  -5.890560  -3.502770  -3.582610 -20.156800  11.950600   4.409190  10.482900  47.669500  33.568900 -69.801200 -14.583300   0.012723   0.003394  -2.292850  -0.003595  -0.000000 -35.172800  10.735700 -14.806300 -29.929300  -0.010027  -0.009172 -20.950500  -0.007046  -0.009812 -30.695400   0.515922  -0.872762 -46.045900  -0.003219   0.000403 -30.668700  -0.002892   0.004008 -28.484200   0.482030  -0.892116 -35.991100  -0.008404  -0.001525 -23.969300   0.003464   0.004344 -31.302500   0.526141  -0.867228 -46.960100   0.004612   0.002228 -31.275200   0.003906  -0.007251  10.712900   1.298170   9.669500  65.763300  15.191000   4.778060   1.044660  -4.216150  18.356100 -21.359300 -18.485500   1.408560 -36.846500  28.070500  57.910400  32.029100   0.001911  -0.001126  11.015600   0.002272  -0.003504  40.134600   3.370050   3.988690  32.930200  -0.004148   0.002071  23.163000   0.002728   0.001849  29.411000  -3.200250  -5.656880  44.354200  -0.006734   0.009600  29.539900   0.000644   0.008710  29.283300  -4.953460  -8.756840  44.491500  -0.005298   0.001863  29.632700  -0.003225   0.005588  42.807000  -6.866990  -7.356790  64.869900  -0.005905  -0.005864  43.205200   0.004900  -0.004357   3.236950   5.908070   1.608330   0.647857   3.476270   9.815520  -7.017620  -4.860580   3.027740   0.000000   0.000000  -0.000000   4.720770   4.867190  -5.780810  -1.909650   3.524460  -5.598690 -10.407200   1.033510  -1.166130  -0.000000   0.000000   0.000000
 -1.966580  90.003700  -1.958780  -1.977320  -6.039690  -1.847630   0.102553   5.883450  -1.192940   0.331631  11.763400  -2.415780   2.021120  -1.529430   0.049983   3.326990  -3.089880  11.505700  -5.863660  -1.891640   5.587850 -69.278800  17.965100  -5.891250  -3.497680  -3.602370 -20.157900  11.957700   4.380680  10.478600  47.665400  33.565800 -69.795500 -14.572400   0.012736   0.003402  -2.286190  -0.003608  -0.000000 -35.174800  10.742300 -14.814100 -29.929400  -0.010059  -0.009186 -20.950600  -0.007078  -0.009830 -30.695500   0.516443  -0.873600 -46.048700  -0.003229   0.000408 -30.668800  -0.002897   0.004049 -28.484200   0.482480  -0.893017 -35.997100  -0.008434  -0.001519 -23.974000   0.003464   0.004350 -31.308000   0.526516  -0.867997 -46.967900   0.004617   0.002237 -31.280600   0.003938  -0.007280  10.715200   1.293730   9.669430  65.771200  15.181300   4.765970   1.047220  -4.196870  18.360900 -21.346300 -18.470300   1.397340 -36.845400  28.075800  57.919600  32.039400   0.001907  -0.001131  11.019700   0.002269  -0.003507  40.130700   3.366250   3.984480  32.930000  -0.004428   0.002013  23.159800   0.002695   0.001802  29.408300  -3.203860  -5.662340  44.351300  -0.010335   0.009737  29.538000   0.000502   0.008851  29.283600  -4.953470  -8.756920  44.494000  -0.005711   0.002111  29.633000  -0.003417   0.005612  42.807400  -6.867010  -7.356820  64.873300  -0.005878  -0.005950  43.205600   0.004850  -0.004421   3.245200   5.924740   1.608320   0.649613   3.482630   9.830850  -7.026800  -4.872210   3.027520   0.000000   0.000000   0.000000   4.733470   4.880620  -5.802890  -1.911250   3.520690  -5.577140 -10.415900   1.026730  -1.155390  -0.000000   0.000000   0.000000
